# xmcd
#
# Track frame offsets:
#       150
#       15467
#       27785
#       44067
#       60910
#       67647
#       78220
#       93432
#       111677
#       127210
#       145472
#       151645
#       166755
#
# Disc length: 2374 seconds
#
# Revision: 0
# Processed by: cddbd v1.4PL0 Copyright (c) Steve Scherf et al.
# Submitted via: CD-DA_X-Tractor v0.21
#
DISCID=a009440d
DTITLE=Gottfried David Gfrerer - Gottfried David Gfrerer
DYEAR=1900
DGENRE=
TTITLE0=Bloody Lane
TTITLE1=Are There Any H. D.
TTITLE2=Down The Borderline
TTITLE3=Dying Love
TTITLE4=National Boogie (Authentic)
TTITLE5=It's Gonna Be A Long Time
TTITLE6=Think Of Your Eyes
TTITLE7=Too Many People
TTITLE8=Blues Gonna Carry Me Away
TTITLE9=Wasting Time
TTITLE10=Hey, Pretty Mama
TTITLE11=Travelin' On
TTITLE12=The Evil Will Rise Again
EXTD=
EXTT0=
EXTT1=
EXTT2=
EXTT3=
EXTT4=
EXTT5=
EXTT6=
EXTT7=
EXTT8=
EXTT9=
EXTT10=
EXTT11=
EXTT12=
PLAYORDER=
